Coordinates
version=1
nRows=17
nColumns=40
inDegrees=yes

Units are S.I. units (second, meters, Newtons, ...)
If the header above contains a line with 'inDegrees', this indicates whether rotational values are in degrees (yes) or radians (no).

endheader
time	pelvis_tilt	pelvis_list	pelvis_rotation	pelvis_tx	pelvis_ty	pelvis_tz	hip_flexion_r	hip_adduction_r	hip_rotation_r	knee_angle_r	knee_angle_r_beta	ankle_angle_r	subtalar_angle_r	mtp_angle_r	hip_flexion_l	hip_adduction_l	hip_rotation_l	knee_angle_l	knee_angle_l_beta	ankle_angle_l	subtalar_angle_l	mtp_angle_l	lumbar_extension	lumbar_bending	lumbar_rotation	arm_flex_r	arm_add_r	arm_rot_r	elbow_flex_r	pro_sup_r	wrist_flex_r	wrist_dev_r	arm_flex_l	arm_add_l	arm_rot_l	elbow_flex_l	pro_sup_l	wrist_flex_l	wrist_dev_l
      3.57500000	     34.82090926	      5.26160162	   -176.81480158	      0.39143856	      0.77398302	     -0.60760144	     71.12150959	    -12.43428748	    -10.28726364	     39.67173156	      0.69240234	      5.98144845	      0.00000000	      0.00000000	     74.04585258	    -14.57055709	     -2.59097181	     37.53228633	      0.65506197	      2.32800504	      0.00000000	      0.00000000	    -42.79134499	      0.75653471	      2.82139800	     61.62148424	     -3.92302170	    -21.51802407	     15.82464344	     38.72519363	      0.00000000	      0.00000000	     69.75879399	     -1.53943968	    -18.93274656	     11.74858769	     31.67223259	      0.00000000	      0.00000000
      3.58000000	     34.89504811	      5.24055574	   -176.87149333	      0.39180594	      0.77315294	     -0.60786677	     71.38355823	    -12.41698994	    -10.20558219	     39.93674213	      0.69702764	      6.13999830	      0.00000000	      0.00000000	     74.26950723	    -14.64502533	     -2.61820829	     37.75821227	      0.65900512	      2.42865493	      0.00000000	      0.00000000	    -42.98912848	      0.66625167	      2.85065184	     61.69812428	     -3.99981073	    -20.01814577	     15.88308130	     38.92072736	      0.00000000	      0.00000000	     69.88531064	     -1.50232036	    -18.19090922	     11.77937342	     32.21474735	      0.00000000	      0.00000000
      3.58500000	     35.18834656	      5.34851009	   -176.79104976	      0.39223508	      0.77199763	     -0.60756476	     71.78048965	    -12.49682716	    -10.21310309	     40.08994793	      0.69970159	      6.17426787	      0.00000000	      0.00000000	     74.77499669	    -14.53855384	     -2.41016349	     37.94220155	      0.66221634	      2.45654678	      0.00000000	      0.00000000	    -42.92756290	      0.84412099	      2.85337627	     62.82622899	     -3.47919447	    -23.78648215	     14.94120476	     38.06486212	      0.00000000	      0.00000000	     71.31946263	     -1.07354361	    -23.56613115	     10.38826011	     30.28066375	      0.00000000	      0.00000000
      3.59000000	     35.39341768	      5.60579465	   -176.90632994	      0.39277879	      0.77100654	     -0.60770418	     72.03065568	    -12.27507154	    -10.29539186	     40.10235909	      0.69991820	      6.09552655	      0.00000000	      0.00000000	     75.28502584	    -14.73578556	     -2.12309724	     38.22912077	      0.66722403	      2.39406254	      0.00000000	      0.00000000	    -42.95905319	      0.98959224	      3.19106379	     62.25262885	     -3.69706370	    -21.73050015	     16.03671628	     38.50587925	      0.00000000	      0.00000000	     70.65102072	     -0.91404336	    -20.99230166	     11.35132303	     31.36882396	      0.00000000	      0.00000000
      3.59500000	     35.59091621	      5.74110308	   -176.96436047	      0.39330689	      0.76998056	     -0.60787975	     72.32165421	    -12.16601124	    -10.30142781	     40.18783349	      0.70141001	      6.15502213	      0.00000000	      0.00000000	     75.72365649	    -14.82605718	     -1.92874269	     38.47089571	      0.67144380	      2.44880197	      0.00000000	      0.00000000	    -42.98760279	      1.05462405	      3.36389509	     61.92671366	     -3.93477417	    -19.68947815	     16.61739109	     38.86042631	      0.00000000	      0.00000000	     70.23823982	     -0.87276999	    -18.85463489	     11.91747605	     32.28175134	      0.00000000	      0.00000000
      3.60000000	     35.66426501	      5.44817403	   -177.00447502	      0.39346498	      0.76911227	     -0.60813018	     72.74829925	    -12.32981876	     -9.98480609	     40.73248008	      0.71091589	      6.39738460	      0.00000000	      0.00000000	     75.79655497	    -14.79667556	     -2.28539254	     38.64934859	      0.67455839	      2.68392697	      0.00000000	      0.00000000	    -43.16340877	      0.75203382	      3.09659995	     63.41675692	     -3.38147823	    -22.61383367	     14.91987187	     38.01467609	      0.00000000	      0.00000000	     71.72338960	     -0.70023405	    -23.24712657	     10.43965604	     30.51504295	      0.00000000	      0.00000000
      3.60500000	     35.87771900	      5.59489322	   -177.03119986	      0.39407523	      0.76790903	     -0.60809357	     73.10777395	    -12.27338256	    -10.02942314	     40.92040261	      0.71419576	      6.41525044	      0.00000000	      0.00000000	     76.30181654	    -14.84138260	     -2.04427229	     38.96767922	      0.68011430	      2.73498653	      0.00000000	      0.00000000	    -43.14678122	      0.86385515	      3.31369989	     62.88850848	     -3.67251735	    -20.34161928	     15.83214090	     38.49130604	      0.00000000	      0.00000000	     71.11798253	     -0.57169035	    -20.33670679	     11.20106100	     31.69826216	      0.00000000	      0.00000000
      3.61000000	     35.94494119	      5.27978550	   -177.17966769	      0.39439654	      0.76730841	     -0.60856300	     73.41086907	    -12.22842925	     -9.52149849	     41.10414687	      0.71740270	      6.46555049	      0.00000000	      0.00000000	     76.31114986	    -14.89576885	     -2.41551956	     39.03551344	      0.68129823	      2.80762811	      0.00000000	      0.00000000	    -43.34799224	      0.45010993	      3.09812618	     63.33305997	     -3.64343990	    -19.10148022	     15.28774113	     38.55515762	      0.00000000	      0.00000000	     71.28020937	     -0.66555029	    -19.86551245	     11.22132058	     31.99007587	      0.00000000	      0.00000000
      3.61500000	     36.15500036	      5.38948631	   -177.18456967	      0.39495098	      0.76608545	     -0.60859497	     73.79765865	    -12.22463737	     -9.54484565	     41.37924475	      0.72220406	      6.64664087	      0.00000000	      0.00000000	     76.79625450	    -14.91451377	     -2.18506560	     39.34926621	      0.68677425	      2.95315663	      0.00000000	      0.00000000	    -43.32031193	      0.54234232	      3.19433384	     63.15757403	     -3.81286663	    -17.52288984	     15.67326475	     38.85407048	      0.00000000	      0.00000000	     71.11665010	     -0.65251354	    -18.23226496	     11.39991281	     32.72094822	      0.00000000	      0.00000000
      3.62000000	     36.33948098	      5.48409252	   -177.24601928	      0.39543719	      0.76508223	     -0.60861298	     74.10713612	    -12.16776243	     -9.56647382	     41.52999556	      0.72483516	      6.63112606	      0.00000000	      0.00000000	     77.20735129	    -14.97690725	     -2.01662026	     39.61219443	      0.69136322	      2.97505309	      0.00000000	      0.00000000	    -43.34475898	      0.58930582	      3.35392782	     62.93436407	     -4.05159142	    -15.85827755	     16.14925277	     39.16316479	      0.00000000	      0.00000000	     70.96223644	     -0.54936361	    -16.97231491	     11.69778410	     33.45323189	      0.00000000	      0.00000000
      3.62500000	     36.48651591	      5.53403998	   -177.30133900	      0.39561355	      0.76436338	     -0.60859107	     74.34343013	    -12.14194654	     -9.59535874	     41.65260244	      0.72697505	      6.66275779	      0.00000000	      0.00000000	     77.47433340	    -15.03232864	     -1.97962022	     39.75035045	      0.69377449	      3.04794281	      0.00000000	      0.00000000	    -43.43084600	      0.60660136	      3.37523699	     64.35020228	     -3.23748856	    -21.01115733	     14.94683987	     38.08557464	      0.00000000	      0.00000000	     72.51823966	     -0.15690739	    -22.75047326	     10.30175055	     30.85070895	      0.00000000	      0.00000000
      3.63000000	     36.69690829	      5.49777793	   -177.36799206	      0.39607479	      0.76329727	     -0.60870850	     74.74043876	    -12.12314796	     -9.44430133	     41.87699853	      0.73089151	      6.72233066	      0.00000000	      0.00000000	     77.83648915	    -15.05886023	     -1.95428395	     39.97133991	      0.69763149	      3.10375917	      0.00000000	      0.00000000	    -43.40997781	      0.51899460	      3.37603669	     65.17622328	     -2.91067104	    -23.26958143	     14.25210558	     36.92271094	      0.00000000	      0.00000000	     72.53693749	     -0.07843211	    -22.20033307	     10.54505980	     28.99814304	      0.00000000	      0.00000000
      3.63500000	     36.86852331	      5.44644799	   -177.46036390	      0.39650134	      0.76233138	     -0.60888665	     75.09200920	    -12.09357145	     -9.31601813	     42.08687993	      0.73455463	      6.78294937	      0.00000000	      0.00000000	     78.14298729	    -15.12201665	     -1.99057480	     40.18492144	      0.70135919	      3.22523816	      0.00000000	      0.00000000	    -43.43119876	      0.39921544	      3.42035408	     65.05891230	     -2.99736951	    -21.97960756	     14.49333231	     37.17711419	      0.00000000	      0.00000000	     72.39127008	     -0.03204831	    -20.73854633	     10.80382635	     29.63702262	      0.00000000	      0.00000000
      3.64000000	     36.97306819	      5.58214131	   -177.47986301	      0.39688305	      0.76156005	     -0.60877793	     75.28507650	    -12.07686171	     -9.42890351	     42.23163614	      0.73708110	      6.80940589	      0.00000000	      0.00000000	     78.44188057	    -15.14320261	     -1.75035862	     40.37419272	      0.70466260	      3.27779713	      0.00000000	      0.00000000	    -43.54214654	      0.51828597	      3.49372334	     65.29771130	     -3.03065324	    -21.06675636	     14.38036657	     37.12781380	      0.00000000	      0.00000000	     72.64083560	      0.08387000	    -21.29857075	     10.68029389	     29.84791998	      0.00000000	      0.00000000
      3.64500000	     37.18288191	      5.49068340	   -177.61062504	      0.39745458	      0.76045867	     -0.60907891	     75.70816785	    -11.98867615	     -9.16977326	     42.43945035	      0.74070814	      6.90450106	      0.00000000	      0.00000000	     78.79976404	    -15.22324288	     -1.78038006	     40.61779280	      0.70891422	      3.43445532	      0.00000000	      0.00000000	    -43.49794271	      0.34061329	      3.52443377	     64.64395820	     -3.36247123	    -17.56862366	     15.19624134	     37.95911800	      0.00000000	      0.00000000	     71.99404530	     -0.03701845	    -17.78710906	     11.38321030	     31.72714183	      0.00000000	      0.00000000
      3.65000000	     37.36894204	      5.55238257	   -177.68752306	      0.39769486	      0.75961066	     -0.60904840	     75.98363928	    -11.94700573	     -9.21389880	     42.55644021	      0.74275000	      6.88203452	      0.00000000	      0.00000000	     79.14867780	    -15.29255350	     -1.69784175	     40.82445138	      0.71252109	      3.44651680	      0.00000000	      0.00000000	    -43.50710810	      0.35784584	      3.61065341	     65.46223403	     -2.96778690	    -20.29478495	     14.51137848	     37.28566302	      0.00000000	      0.00000000	     73.07468250	      0.28608503	    -21.62566725	     10.41037983	     30.10070826	      0.00000000	      0.00000000
      3.65500000	     37.61087562	      5.89311951	   -177.88030507	      0.39825063	      0.75878583	     -0.60923654	     76.11837724	    -11.58328972	     -9.33114015	     42.30001457	      0.73827453	      6.81914099	      0.00000000	      0.00000000	     79.66533798	    -15.51726461	     -1.20407351	     40.98919065	      0.71539633	      3.33091610	      0.00000000	      0.00000000	    -43.45516558	      0.53907245	      3.99317094	     64.38048889	     -3.17550056	    -17.92259313	     16.40356667	     38.08396087	      0.00000000	      0.00000000	     72.01181449	      0.27054650	    -18.37884652	     11.87474422	     31.81386184	      0.00000000	      0.00000000
